<svg width="157" height="157" viewBox="0 0 157 157" fill="none" xmlns="http://www.w3.org/2000/svg">
<g clip-path="url(#clip0_4_10)">
<path fill-rule="evenodd" clip-rule="evenodd" d="M100.069 63.9208C112.312 72.7473 123.663 84.1209 129.27 98.1225C131.311 103.217 132.091 108.467 132.939 113.835C132.999 114.212 132.741 114.567 132.363 114.628C131.984 114.687 131.628 114.429 131.569 114.05C130.737 108.786 129.984 103.634 127.983 98.6381C122.456 84.8352 111.228 73.6511 99.1518 64.9674L99.0033 65.1424C97.3954 67.0469 94.1303 67.9231 90.2692 67.9421C84.7347 67.9702 77.9736 66.3125 73.5698 64.0099C71.5912 62.9747 70.0823 61.796 69.3074 60.5975C68.7027 59.6633 68.5147 58.7024 68.7917 57.7562C69.3833 55.7403 71.5718 54.7451 74.6185 54.6469C80.9905 54.4397 91.1997 57.9352 95.2045 60.5701C96.4548 61.3934 97.7031 62.242 98.942 63.1173C99.234 62.79 99.5185 62.4683 99.781 62.1431C100.526 61.2141 101.099 60.2386 101.152 58.8657C101.232 56.7258 100.402 54.6074 99.1602 52.6293C97.2194 49.5435 94.2633 46.8058 91.9244 44.8685C78.8976 34.0802 64.5839 32.5307 51.762 34.1823C38.8134 35.8525 27.3689 40.7745 20.2259 42.8654C19.8587 42.9737 19.4748 42.7617 19.3665 42.3945C19.2583 42.0273 19.4694 41.6418 19.8374 41.5351C27.0263 39.4303 38.5502 34.4881 51.5855 32.8085C64.7476 31.1103 79.4358 32.7263 92.8087 43.7994C95.2453 45.8173 98.3132 48.6774 100.334 51.8908C101.732 54.116 102.627 56.5104 102.537 58.9187C102.455 61.0797 101.362 62.4503 100.069 63.9208ZM98.0172 64.1613L97.9441 64.2492C96.5388 65.9141 93.6388 66.5392 90.2627 66.5553C84.9445 66.5823 78.446 64.9945 74.2124 62.7799C72.7604 62.0215 71.5812 61.1944 70.8343 60.3268C70.2192 59.6104 69.9063 58.882 70.1231 58.1472C70.3248 57.4522 70.8319 56.9704 71.5344 56.6415C72.3586 56.254 73.432 56.0725 74.6627 56.0319C80.7856 55.8334 90.5942 59.1959 94.4421 61.7282C95.6366 62.5156 96.8299 63.3258 98.0172 64.1613Z" fill="#FFAC2F"/>
<path fill-rule="evenodd" clip-rule="evenodd" d="M131.771 116.353C132.012 116.169 132.261 115.824 132.524 115.45C133.152 114.559 133.739 113.44 134.037 112.923C134.229 112.591 134.653 112.48 134.985 112.67C135.317 112.863 135.43 113.286 135.237 113.618C134.872 114.251 134.088 115.741 133.311 116.714C132.894 117.235 132.457 117.612 132.083 117.756C131.446 118.003 130.829 117.703 130.388 116.73C129.867 115.579 129.419 113.192 127.88 111.754C127.6 111.494 127.586 111.053 127.847 110.775C128.109 110.494 128.548 110.479 128.828 110.741C130.294 112.113 130.929 114.23 131.436 115.617C131.532 115.88 131.68 116.178 131.771 116.353Z" fill="#FFAC2F"/>
</g>
<defs>
<clipPath id="clip0_4_10">
<rect width="117.583" height="117.583" fill="white" transform="matrix(0.434553 0.900646 0.900646 -0.434553 0 51.0957)"/>
</clipPath>
</defs>
</svg>
