<svg width="1062" height="442" viewBox="0 0 1062 442" fill="none" xmlns="http://www.w3.org/2000/svg">
<path d="M3.69261 220.26L19.636 227.974C35.5793 235.687 67.466 251.113 102.342 252.061C137.219 253.009 175.084 239.478 210.534 237.648C245.984 235.818 279.018 245.689 314.486 243.77C349.954 241.852 387.856 228.145 425.007 218.075C462.159 208.005 486.202 235.214 524.319 220.466C562.437 205.718 606.484 201.317 638.452 216.352C670.419 231.387 702.663 232.215 735.052 245.21C767.441 258.205 808.117 231.062 842.96 232.171C877.803 233.28 906.813 262.64 941.732 263.381C976.651 264.123 1017.48 236.245 1037.89 222.306L1058.31 208.368" stroke="url(#paint0_linear_219_2)" stroke-width="6" stroke-linecap="round"/>
<circle cx="510" cy="221" r="20" fill="#FF6B00"/>
<defs>
<linearGradient id="paint0_linear_219_2" x1="1178.8" y1="353.694" x2="-96.828" y2="322.981" gradientUnits="userSpaceOnUse">
<stop stop-opacity="0.19"/>
<stop offset="0.490247" stop-color="#FF6B00"/>
<stop offset="1" stop-opacity="0.52"/>
</linearGradient>
</defs>
</svg>
