<svg width="100" height="100" viewBox="0 0 100 100" fill="none" xmlns="http://www.w3.org/2000/svg">
<path fill-rule="evenodd" clip-rule="evenodd" d="M50 26.042C42.5213 26.042 36.4584 32.1048 36.4584 39.5837C36.4584 47.0624 42.5213 53.1253 50 53.1253C57.4788 53.1253 63.5417 47.0624 63.5417 39.5837C63.5417 32.1048 57.4788 26.042 50 26.042ZM42.7084 39.5837C42.7084 35.5566 45.973 32.292 50 32.292C54.0271 32.292 57.2917 35.5566 57.2917 39.5837C57.2917 43.6107 54.0271 46.8753 50 46.8753C45.973 46.8753 42.7084 43.6107 42.7084 39.5837Z" fill="#FFAC2F" fill-opacity="0.34"/>
<path fill-rule="evenodd" clip-rule="evenodd" d="M50 9.375C33.3164 9.375 19.7916 22.8998 19.7916 39.5833C19.7916 45.7004 21.6099 51.3929 24.7355 56.15L13.9603 74.8129C13.3475 75.8746 13.4117 77.1958 14.1245 78.1929C14.8372 79.19 16.0669 79.6783 17.2694 79.4417L28.1605 77.3008L31.7519 87.8033C32.1485 88.9629 33.1862 89.7837 34.406 89.9025C35.6258 90.0212 36.8024 89.4162 37.4152 88.3546L48.1641 69.7367C48.7716 69.7733 49.3837 69.7917 50 69.7917C50.6162 69.7917 51.2283 69.7733 51.8358 69.7367L62.585 88.3546C63.1983 89.4171 64.3766 90.0225 65.5975 89.9021C66.8183 89.7821 67.8558 88.9587 68.2504 87.7971L71.8233 77.2729L82.7237 79.4404C83.927 79.68 85.1591 79.1929 85.8737 78.1958C86.5883 77.1983 86.6529 75.8754 86.0395 74.8129L75.2645 56.15C78.39 51.3929 80.2083 45.7004 80.2083 39.5833C80.2083 22.8998 66.6837 9.375 50 9.375ZM26.0416 39.5833C26.0416 26.3515 36.7682 15.625 50 15.625C63.2316 15.625 73.9583 26.3515 73.9583 39.5833C73.9583 52.815 63.2316 63.5417 50 63.5417C36.7682 63.5417 26.0416 52.815 26.0416 39.5833ZM41.599 68.6083C36.7949 67.22 32.4832 64.6717 28.9871 61.2858L22.8112 71.9829L29.6319 70.6421C31.1655 70.3404 32.6859 71.2183 33.1916 72.6971L35.4407 79.2746L41.599 68.6083ZM64.5491 79.2571L58.4012 68.6083C63.205 67.22 67.5166 64.6717 71.0129 61.2858L77.1787 71.9654L70.3545 70.6087C68.8166 70.3029 67.2904 71.1842 66.7862 72.6692L64.5491 79.2571Z" fill="#FFAC2F" fill-opacity="0.34"/>
</svg>
