<svg width="100" height="100" viewBox="0 0 100 100" fill="none" xmlns="http://www.w3.org/2000/svg">
<path d="M69.7917 45.833C69.7917 47.5588 68.3925 48.958 66.6667 48.958H33.3334C31.6075 48.958 30.2084 47.5588 30.2084 45.833C30.2084 44.1072 31.6075 42.708 33.3334 42.708H66.6667C68.3925 42.708 69.7917 44.1072 69.7917 45.833Z" fill="#FFAC2F" fill-opacity="0.34"/>
<path fill-rule="evenodd" clip-rule="evenodd" d="M18.2732 33.9448L23.2263 20.4132C24.4745 17.003 27.502 14.5594 31.0988 14.0588C43.6391 12.3137 56.3608 12.3137 68.9016 14.0588C72.4983 14.5594 75.5258 17.0031 76.7741 20.4133L81.7275 33.9461C82.6537 35.3915 83.2916 37.0437 83.5595 38.8248L83.9845 41.6492C85.6504 52.7269 85.4945 64.0023 83.5233 75.0294C82.6495 79.9182 78.6345 83.6319 73.6925 84.1224L68.5658 84.6311C56.2187 85.8565 43.7808 85.8565 31.434 84.6311L26.307 84.1224C21.3651 83.6319 17.3503 79.9182 16.4764 75.0294C14.5053 64.0023 14.3495 52.7269 16.0153 41.6492L16.44 38.8248C16.708 37.0431 17.3464 35.3905 18.2732 33.9448ZM31.9602 20.2492C43.9291 18.5836 56.0712 18.5836 68.04 20.2492C69.3487 20.4313 70.4504 21.3206 70.905 22.5615L73.0141 28.324C72.825 28.2964 72.6345 28.2731 72.4433 28.2541L68.3675 27.8496C56.1525 26.6372 43.8475 26.6372 31.6324 27.8496L27.5566 28.2541C27.3652 28.2731 27.175 28.2964 26.9862 28.3239L29.0954 22.5615C29.5497 21.3206 30.6513 20.4313 31.9602 20.2492ZM23.6902 37.0877L23.768 37.1161L23.8644 36.8526C24.8883 35.5365 26.4263 34.647 28.1739 34.4736L32.2497 34.069C44.0541 32.8974 55.9454 32.8974 67.75 34.069L71.8258 34.4736C73.5737 34.6471 75.112 35.5369 76.1358 36.8534L76.232 37.1161L76.3095 37.0878C76.8558 37.8623 77.2308 38.7688 77.3791 39.7542L77.8037 42.5786C79.3683 52.9828 79.222 63.5728 77.3708 73.9298C76.9891 76.0661 75.2345 77.6886 73.0754 77.9028L67.9483 78.4119C56.012 79.5965 43.9879 79.5965 32.0513 78.4119L26.9244 77.9028C24.765 77.6886 23.0107 76.0661 22.6289 73.9298C20.7775 63.5728 20.6313 52.9828 22.1958 42.5786L22.6205 39.7542C22.7688 38.7687 23.1438 37.8623 23.6902 37.0877Z" fill="#FFAC2F" fill-opacity="0.34"/>
</svg>
