<svg width="100" height="100" viewBox="0 0 100 100" fill="none" xmlns="http://www.w3.org/2000/svg">
<path fill-rule="evenodd" clip-rule="evenodd" d="M43.4117 17.6274C46.0834 13.0237 53.125 14.9188 53.125 20.2414V68.9108C53.125 73.1642 50.7688 77.0679 47.005 79.0496L33.3567 86.2362C27.9524 89.0816 21.654 84.42 22.7965 78.42L25.7131 63.1037C26.0681 61.2391 25.3809 59.3296 23.9195 58.1187L13.5074 49.4925C8.65619 45.4733 10.8412 37.6083 17.0704 36.6675L31.3606 34.5091C32.9233 34.2731 34.2944 33.3402 35.0876 31.9732L43.4117 17.6274ZM46.875 24.1121L40.4934 35.11C38.7483 38.1174 35.732 40.1697 32.2939 40.689L18.0038 42.8475C17.1139 42.9816 16.8017 44.1054 17.4948 44.6796L27.9069 53.3058C31.122 55.9696 32.6337 60.1712 31.8527 64.2729L28.9361 79.5891C28.7729 80.4462 29.6727 81.1125 30.4447 80.7058L44.0934 73.5191C45.8042 72.6187 46.875 70.8442 46.875 68.9108V24.1121Z" fill="#FFAC2F" fill-opacity="0.34"/>
</svg>
