<svg width="100" height="103" viewBox="0 0 100 103" fill="none" xmlns="http://www.w3.org/2000/svg">
<path fill-rule="evenodd" clip-rule="evenodd" d="M48.3428 79.9797C48.8758 80.3093 49.4462 80.4552 49.9999 80.4479C50.5537 80.4552 51.1241 80.3093 51.657 79.9797L56.3874 77.0567C65.6645 71.3234 77.0103 70.387 87.0553 74.5255C90.7608 76.052 94.7916 73.2414 94.7916 69.1308V19.0946C94.7916 16.6142 93.3253 14.3838 91.0895 13.4626C78.1516 8.1322 63.5383 9.33824 51.5895 16.7226L49.9999 17.705L48.4103 16.7226C36.4615 9.33824 21.8481 8.1322 8.91025 13.4626C6.67438 14.3838 5.20825 16.6142 5.20825 19.0946V69.1308C5.20825 73.2414 9.23904 76.052 12.9446 74.5255C22.9896 70.387 34.3354 71.3234 43.6124 77.0567L48.3428 79.9797ZM11.4583 19.3471V68.2154C23.1074 63.7177 36.1324 64.9267 46.8283 71.5363L46.8749 71.5655V23.2811L45.1945 22.2427C34.9905 15.9366 22.5263 14.8708 11.4583 19.3471ZM53.1716 71.5363L53.1249 71.5655V23.2811L54.8053 22.2427C65.0095 15.9366 77.4737 14.8708 88.5416 19.3471V68.2154C76.8924 63.7177 63.8674 64.9267 53.1716 71.5363Z" fill="#FFAC2F" fill-opacity="0.34"/>
<path d="M38.6465 81.7229C30.2138 76.6562 19.7863 76.6562 11.3535 81.7229L10.9254 81.98C9.43463 82.8757 8.93109 84.8464 9.80071 86.3819C10.6703 87.9175 12.5838 88.4364 14.0746 87.5407L14.5027 87.2832C20.9894 83.3859 29.0106 83.3859 35.4973 87.2832L40.0275 90.0054C46.19 93.7078 53.81 93.7078 59.9725 90.0054L64.5025 87.2832C70.9896 83.3859 79.0104 83.3859 85.4975 87.2832L85.9254 87.5407C87.4162 88.4364 89.3296 87.9175 90.1992 86.3819C91.0687 84.8464 90.5654 82.8757 89.0746 81.98L88.6467 81.7229C80.2137 76.6562 69.7862 76.6562 61.3533 81.7229L56.8233 84.4447C52.6071 86.9781 47.3929 86.9781 43.1767 84.4447L38.6465 81.7229Z" fill="#FFAC2F" fill-opacity="0.34"/>
</svg>
