<svg width="100" height="100" viewBox="0 0 100 100" fill="none" xmlns="http://www.w3.org/2000/svg">
<path fill-rule="evenodd" clip-rule="evenodd" d="M48.3816 13.7588C49.3962 13.47 50.4662 13.4698 51.4803 13.7577C53.637 14.3696 55.8133 14.9372 57.9966 15.5067C68.2499 18.1809 78.6637 20.8968 87.9283 28.4427L92.1945 31.9177C93.9249 33.3272 94.7908 35.4136 94.7916 37.5003V66.667C94.7916 68.3928 93.3924 69.792 91.6666 69.792C89.9408 69.792 88.5416 68.3928 88.5416 66.667V46.0699L87.8628 46.6237C84.6524 49.2432 81.3033 51.2778 77.8699 52.9291C78.0341 53.3087 78.1249 53.727 78.1249 54.167V72.0582C78.1249 76.7803 75.2283 81.0187 70.8287 82.7341L54.162 89.232C51.4853 90.2753 48.5145 90.2753 45.8378 89.232L29.1712 82.7341C24.7717 81.0187 21.8749 76.7803 21.8749 72.0582V54.167C21.8749 53.7162 21.9704 53.2874 22.1423 52.9003C18.6825 51.2391 15.3071 49.1932 12.0718 46.5578L7.80534 43.0828C4.34425 40.264 4.34246 34.7375 7.80054 31.9156L12.1371 28.3769C21.3348 20.8713 31.6746 18.1716 41.852 15.5143C44.0403 14.943 46.2212 14.3735 48.3816 13.7588ZM88.5416 37.5028C88.5416 37.1275 88.3899 36.8796 88.2474 36.7637L83.9812 33.2887C74.9999 27.0837 66.9974 24.347 56.8328 21.676C54.5978 21.0887 52.2995 20.4847 49.9333 19.8153C47.5562 20.4896 45.2495 21.0964 43.007 21.6864C32.9241 24.339 24.1384 26.6504 16.0886 33.2192L11.752 36.758C11.6095 36.8742 11.4581 37.1225 11.4583 37.4978C11.4584 37.8732 11.61 38.1211 11.7523 38.237L16.0188 41.712C24.1368 48.3241 33.0026 50.6537 43.167 53.3245C45.402 53.912 47.7003 54.5157 50.0666 55.1853C52.4437 54.5112 54.7499 53.9045 56.9924 53.3145C67.0753 50.6616 75.8616 48.3503 83.9112 41.7816L88.2478 38.2427C88.3903 38.1265 88.5416 37.8776 88.5416 37.5028ZM58.1478 59.4862C62.7303 58.2899 67.3458 57.0849 71.8749 55.4362V72.0582C71.8749 74.2049 70.5583 76.1312 68.5583 76.9107L51.8916 83.4087C50.6753 83.8828 49.3245 83.8828 48.1083 83.4087L31.4414 76.9107C29.4416 76.1312 28.1249 74.2049 28.1249 72.0582V55.4007C32.7031 57.0682 37.3695 58.2853 42.0033 59.4941C44.1866 60.0632 46.3628 60.6312 48.5195 61.2428C49.5337 61.5307 50.6041 61.5307 51.6183 61.242C53.7787 60.627 55.9595 60.0578 58.1478 59.4862Z" fill="#FFAC2F" fill-opacity="0.34"/>
</svg>
