<svg width="100" height="100" viewBox="0 0 100 100" fill="none" xmlns="http://www.w3.org/2000/svg">
<path fill-rule="evenodd" clip-rule="evenodd" d="M32.2916 31.2503C32.2916 21.4703 40.2199 13.542 50 13.542C59.78 13.542 67.7083 21.4703 67.7083 31.2503C67.7083 41.0304 59.78 48.9587 50 48.9587C40.2199 48.9587 32.2916 41.0304 32.2916 31.2503ZM50 19.792C43.6716 19.792 38.5416 24.9221 38.5416 31.2503C38.5416 37.5786 43.6716 42.7087 50 42.7087C56.3283 42.7087 61.4583 37.5786 61.4583 31.2503C61.4583 24.9221 56.3283 19.792 50 19.792Z" fill="#FFAC2F" fill-opacity="0.34"/>
<path fill-rule="evenodd" clip-rule="evenodd" d="M33.3334 61.458C28.1557 61.458 23.9584 65.6555 23.9584 70.833V75.7843C23.9584 75.8597 24.013 75.9239 24.0874 75.9359C41.2489 78.738 58.7513 78.738 75.9126 75.9359C75.9871 75.9239 76.0417 75.8597 76.0417 75.7843V70.833C76.0417 65.6555 71.8442 61.458 66.6667 61.458H65.2463C65.1367 61.458 65.0275 61.4755 64.923 61.5093L61.3167 62.6872C53.9634 65.088 46.0367 65.088 38.6833 62.6872L35.077 61.5093C34.9726 61.4755 34.8635 61.458 34.7537 61.458H33.3334ZM17.7084 70.833C17.7084 62.2034 24.7039 55.208 33.3334 55.208H34.7537C35.5224 55.208 36.2863 55.3297 37.017 55.568L40.6233 56.7459C46.7163 58.7351 53.2838 58.7351 59.3767 56.7459L62.983 55.568C63.7138 55.3297 64.4775 55.208 65.2463 55.208H66.6667C75.2963 55.208 82.2917 62.2034 82.2917 70.833V75.7843C82.2917 78.9226 80.0171 81.5984 76.9196 82.1043C59.0913 85.0151 40.9088 85.0151 23.0803 82.1043C19.9829 81.5984 17.7084 78.9226 17.7084 75.7843V70.833Z" fill="#FFAC2F" fill-opacity="0.34"/>
</svg>
